<svg width="11" height="11" viewBox="0 0 11 11" fill="none" xmlns="http://www.w3.org/2000/svg">
<path d="M7.315 5.38998L10.718 2.05527C11.094 1.68681 11.094 1.08946 10.718 0.721588L10.2643 0.277029C9.88823 -0.0915371 9.27864 -0.0915371 8.90323 0.277029L5.50035 3.61163L2.09735 0.276338C1.72136 -0.0921127 1.11177 -0.0921127 0.736365 0.276338L0.281997 0.720897C-0.093999 1.08946 -0.093999 1.68682 0.281997 2.05469L3.68558 5.38998L0.282702 8.72458C-0.0934115 9.09314 -0.0934115 9.69049 0.282702 10.0584L0.736365 10.5029C1.11236 10.8714 1.72194 10.8714 2.09735 10.5029L5.50035 7.16821L8.90323 10.5029C9.27935 10.8714 9.88893 10.8714 10.2643 10.5029L10.718 10.0584C11.094 9.6898 11.094 9.09245 10.718 8.72458L7.315 5.38998Z" fill="black" fill-opacity="0.37"/>
</svg>
