<svg width="153" height="44" viewBox="0 0 153 44" fill="none" xmlns="http://www.w3.org/2000/svg">
<path d="M152.26 21.7621C152.26 20.4321 150.91 18.6421 149.5 16.1621C148.09 13.6821 143.33 5.25208 141.63 2.77208C139.93 0.292081 138.09 0.0120808 138.09 0.0120808H135C135 0.0120808 15.2499 0.312081 7.30994 0.0120808C-0.630064 -0.287919 -0.430064 5.08208 0.369936 6.92208C1.16994 8.76208 7.78994 21.2921 7.78994 21.7621C7.78994 22.2321 1.16994 34.7521 0.369936 36.5921C-0.430064 38.4321 -0.630064 43.7921 7.30994 43.5021C15.2499 43.2121 135.04 43.5021 135.04 43.5021H138.09C138.09 43.5021 139.93 43.2321 141.63 40.7521C143.33 38.2721 148.08 29.8421 149.5 27.3621C150.92 24.8821 152.26 23.0921 152.26 21.7621V21.7621Z" fill="url(#paint0_linear)"/>
<defs>
<linearGradient id="paint0_linear" x1="76.1308" y1="43.5203" x2="76.1308" y2="0.00297253" gradientUnits="userSpaceOnUse">
<stop stop-color="#FBA600"/>
<stop offset="1" stop-color="#FCDB00"/>
</linearGradient>
</defs>
</svg>
