<svg width="1054" height="407" viewBox="0 0 1054 407" fill="none" xmlns="http://www.w3.org/2000/svg">
<path d="M58.4106 -22.1547H53.9019V504.248H58.4106V-22.1547Z" fill="#939598"/>
<path d="M170.567 -22.1547H166.059V504.248H170.567V-22.1547Z" fill="#939598"/>
<path d="M282.442 -22.1547H277.933V504.248H282.442V-22.1547Z" fill="#939598"/>
<path d="M394.598 -22.1547H390.089V504.248H394.598V-22.1547Z" fill="#939598"/>
<path d="M507.6 -22.1547H501.4V504.248H507.6V-22.1547Z" fill="#939598"/>
<path d="M618.911 -22.1547H614.402V504.248H618.911V-22.1547Z" fill="#939598"/>
<path d="M731.067 -22.1547H726.558V504.248H731.067V-22.1547Z" fill="#939598"/>
<path d="M843.224 -22.1547H838.715V504.248H843.224V-22.1547Z" fill="#939598"/>
<path d="M955.098 -22.1547H950.589V504.248H955.098V-22.1547Z" fill="#939598"/>
<path d="M67.7106 -22.1547H66.8652V504.248H67.7106V-22.1547Z" fill="#939598"/>
<path d="M179.866 -22.1547H179.021V504.248H179.866V-22.1547Z" fill="#939598"/>
<path d="M292.023 -22.1547H291.177V504.248H292.023V-22.1547Z" fill="#939598"/>
<path d="M404.179 -22.1547H403.334V504.248H404.179V-22.1547Z" fill="#939598"/>
<path d="M516.053 -22.1547H515.208V504.248H516.053V-22.1547Z" fill="#939598"/>
<path d="M628.21 -22.1547H627.365V504.248H628.21V-22.1547Z" fill="#939598"/>
<path d="M740.367 -22.1547H739.521V504.248H740.367V-22.1547Z" fill="#939598"/>
<path d="M852.523 -22.1547H851.678V504.248H852.523V-22.1547Z" fill="#939598"/>
<path d="M964.679 -22.1547H963.833V504.248H964.679V-22.1547Z" fill="#939598"/>
<path d="M78.9826 -22.1547H78.1372V504.248H78.9826V-22.1547Z" fill="#939598"/>
<path d="M191.138 -22.1547H190.293V504.248H191.138V-22.1547Z" fill="#939598"/>
<path d="M303.013 -22.1547H302.168V504.248H303.013V-22.1547Z" fill="#939598"/>
<path d="M415.169 -22.1547H414.324V504.248H415.169V-22.1547Z" fill="#939598"/>
<path d="M527.326 -22.1547H526.48V504.248H527.326V-22.1547Z" fill="#939598"/>
<path d="M639.482 -22.1547H638.637V504.248H639.482V-22.1547Z" fill="#939598"/>
<path d="M751.639 -22.1547H750.793V504.248H751.639V-22.1547Z" fill="#939598"/>
<path d="M863.795 -22.1547H862.95V504.248H863.795V-22.1547Z" fill="#939598"/>
<path d="M975.67 -22.1547H974.824V504.248H975.67V-22.1547Z" fill="#939598"/>
<path d="M90.2546 -22.1547H89.4092V504.248H90.2546V-22.1547Z" fill="#939598"/>
<path d="M202.129 -22.1547H201.283V504.248H202.129V-22.1547Z" fill="#939598"/>
<path d="M314.285 -22.1547H313.44V504.248H314.285V-22.1547Z" fill="#939598"/>
<path d="M426.441 -22.1547H425.596V504.248H426.441V-22.1547Z" fill="#939598"/>
<path d="M538.598 -22.1547H537.752V504.248H538.598V-22.1547Z" fill="#939598"/>
<path d="M650.754 -22.1547H649.909V504.248H650.754V-22.1547Z" fill="#939598"/>
<path d="M762.629 -22.1547H761.783V504.248H762.629V-22.1547Z" fill="#939598"/>
<path d="M874.785 -22.1547H873.939V504.248H874.785V-22.1547Z" fill="#939598"/>
<path d="M986.942 -22.1547H986.096V504.248H986.942V-22.1547Z" fill="#939598"/>
<path d="M101.244 -22.1547H100.399V504.248H101.244V-22.1547Z" fill="#939598"/>
<path d="M213.401 -22.1547H212.556V504.248H213.401V-22.1547Z" fill="#939598"/>
<path d="M325.557 -22.1547H324.712V504.248H325.557V-22.1547Z" fill="#939598"/>
<path d="M437.713 -22.1547H436.868V504.248H437.713V-22.1547Z" fill="#939598"/>
<path d="M549.87 -22.1547H549.024V504.248H549.87V-22.1547Z" fill="#939598"/>
<path d="M661.744 -22.1547H660.898V504.248H661.744V-22.1547Z" fill="#939598"/>
<path d="M773.901 -22.1547H773.055V504.248H773.901V-22.1547Z" fill="#939598"/>
<path d="M886.057 -22.1547H885.212V504.248H886.057V-22.1547Z" fill="#939598"/>
<path d="M998.214 -22.1547H997.368V504.248H998.214V-22.1547Z" fill="#939598"/>
<path d="M1.20557 -22.1547H-1.04883V504.248H1.20557V-22.1547Z" fill="#939598"/>
<path d="M113.362 -22.1547H111.107V504.248H113.362V-22.1547Z" fill="#939598"/>
<path d="M225.519 -22.1547H223.264V504.248H225.519V-22.1547Z" fill="#939598"/>
<path d="M337.393 -22.1547H335.138V504.248H337.393V-22.1547Z" fill="#939598"/>
<path d="M449.549 -22.1547H447.295V504.248H449.549V-22.1547Z" fill="#939598"/>
<path d="M561.705 -22.1547H559.451V504.248H561.705V-22.1547Z" fill="#939598"/>
<path d="M673.862 -22.1547H671.607V504.248H673.862V-22.1547Z" fill="#939598"/>
<path d="M786.018 -22.1547H783.764V504.248H786.018V-22.1547Z" fill="#939598"/>
<path d="M897.893 -22.1547H895.638V504.248H897.893V-22.1547Z" fill="#939598"/>
<path d="M1010.05 -22.1547H1007.79V504.248H1010.05V-22.1547Z" fill="#939598"/>
<path d="M11.632 -22.1547H10.7866V504.248H11.632V-22.1547Z" fill="#939598"/>
<path d="M123.788 -22.1547H122.943V504.248H123.788V-22.1547Z" fill="#939598"/>
<path d="M235.945 -22.1547H235.1V504.248H235.945V-22.1547Z" fill="#939598"/>
<path d="M348.101 -22.1547H347.256V504.248H348.101V-22.1547Z" fill="#939598"/>
<path d="M459.976 -22.1547H459.13V504.248H459.976V-22.1547Z" fill="#939598"/>
<path d="M572.132 -22.1547H571.287V504.248H572.132V-22.1547Z" fill="#939598"/>
<path d="M684.288 -22.1547H683.443V504.248H684.288V-22.1547Z" fill="#939598"/>
<path d="M796.444 -22.1547H795.599V504.248H796.444V-22.1547Z" fill="#939598"/>
<path d="M908.601 -22.1547H907.756V504.248H908.601V-22.1547Z" fill="#939598"/>
<path d="M1020.48 -22.1547H1019.63V504.248H1020.48V-22.1547Z" fill="#939598"/>
<path d="M22.904 -22.1547H22.0586V504.248H22.904V-22.1547Z" fill="#939598"/>
<path d="M135.06 -22.1547H134.215V504.248H135.06V-22.1547Z" fill="#939598"/>
<path d="M247.217 -22.1547H246.372V504.248H247.217V-22.1547Z" fill="#939598"/>
<path d="M359.092 -22.1547H358.246V504.248H359.092V-22.1547Z" fill="#939598"/>
<path d="M471.248 -22.1547H470.402V504.248H471.248V-22.1547Z" fill="#939598"/>
<path d="M583.404 -22.1547H582.559V504.248H583.404V-22.1547Z" fill="#939598"/>
<path d="M695.56 -22.1547H694.715V504.248H695.56V-22.1547Z" fill="#939598"/>
<path d="M807.716 -22.1547H806.871V504.248H807.716V-22.1547Z" fill="#939598"/>
<path d="M919.591 -22.1547H918.746V504.248H919.591V-22.1547Z" fill="#939598"/>
<path d="M1031.75 -22.1547H1030.9V504.248H1031.75V-22.1547Z" fill="#939598"/>
<path d="M34.176 -22.1547H33.3306V504.248H34.176V-22.1547Z" fill="#939598"/>
<path d="M146.332 -22.1547H145.487V504.248H146.332V-22.1547Z" fill="#939598"/>
<path d="M258.207 -22.1547H257.361V504.248H258.207V-22.1547Z" fill="#939598"/>
<path d="M370.363 -22.1547H369.518V504.248H370.363V-22.1547Z" fill="#939598"/>
<path d="M482.52 -22.1547H481.674V504.248H482.52V-22.1547Z" fill="#939598"/>
<path d="M594.676 -22.1547H593.831V504.248H594.676V-22.1547Z" fill="#939598"/>
<path d="M706.832 -22.1547H705.987V504.248H706.832V-22.1547Z" fill="#939598"/>
<path d="M818.707 -22.1547H817.862V504.248H818.707V-22.1547Z" fill="#939598"/>
<path d="M930.863 -22.1547H930.018V504.248H930.863V-22.1547Z" fill="#939598"/>
<path d="M1043.02 -22.1547H1042.17V504.248H1043.02V-22.1547Z" fill="#939598"/>
<path d="M45.4479 -22.1547H44.6025V504.248H45.4479V-22.1547Z" fill="#939598"/>
<path d="M157.322 -22.1547H156.477V504.248H157.322V-22.1547Z" fill="#939598"/>
<path d="M269.479 -22.1547H268.633V504.248H269.479V-22.1547Z" fill="#939598"/>
<path d="M381.635 -22.1547H380.79V504.248H381.635V-22.1547Z" fill="#939598"/>
<path d="M493.792 -22.1547H492.946V504.248H493.792V-22.1547Z" fill="#939598"/>
<path d="M605.948 -22.1547H605.103V504.248H605.948V-22.1547Z" fill="#939598"/>
<path d="M717.823 -22.1547H716.978V504.248H717.823V-22.1547Z" fill="#939598"/>
<path d="M829.979 -22.1547H829.134V504.248H829.979V-22.1547Z" fill="#939598"/>
<path d="M942.135 -22.1547H941.29V504.248H942.135V-22.1547Z" fill="#939598"/>
<path d="M1054.29 -22.1547H1053.45V504.248H1054.29V-22.1547Z" fill="#939598"/>
<path d="M1065 53.6496H-56V58.1584H1065V53.6496Z" fill="#939598"/>
<path d="M1065 165.806H-56V170.315H1065V165.806Z" fill="#939598"/>
<path d="M1065 277.962H-56V282.471H1065V277.962Z" fill="#939598"/>
<path d="M1065 389.837H-56V394.346H1065V389.837Z" fill="#939598"/>
<path d="M1065 66.6123H-56V67.4577H1065V66.6123Z" fill="#939598"/>
<path d="M1065 178.769H-56V179.614H1065V178.769Z" fill="#939598"/>
<path d="M1065 290.925H-56V291.771H1065V290.925Z" fill="#939598"/>
<path d="M1065 403.081H-56V403.927H1065V403.081Z" fill="#939598"/>
<path d="M1065 77.8843H-56V78.7297H1065V77.8843Z" fill="#939598"/>
<path d="M1065 190.041H-56V190.886H1065V190.041Z" fill="#939598"/>
<path d="M1065 302.197H-56V303.043H1065V302.197Z" fill="#939598"/>
<path d="M1065 89.1563H-56V90.0017H1065V89.1563Z" fill="#939598"/>
<path d="M1065 201.313H-56V202.158H1065V201.313Z" fill="#939598"/>
<path d="M1065 313.187H-56V314.033H1065V313.187Z" fill="#939598"/>
<path d="M1065 100.428H-56V101.274H1065V100.428Z" fill="#939598"/>
<path d="M1065 212.303H-56V213.148H1065V212.303Z" fill="#939598"/>
<path d="M1065 324.459H-56V325.305H1065V324.459Z" fill="#939598"/>
<path d="M1065 -1.30139H-56V0.953008H1065V-1.30139Z" fill="#939598"/>
<path d="M1065 110.855H-56V113.109H1065V110.855Z" fill="#939598"/>
<path d="M1065 223.011H-56V225.266H1065V223.011Z" fill="#939598"/>
<path d="M1065 335.168H-56V337.422H1065V335.168Z" fill="#939598"/>
<path d="M1065 10.5342H-56V11.3796H1065V10.5342Z" fill="#939598"/>
<path d="M1065 122.691H-56V123.536H1065V122.691Z" fill="#939598"/>
<path d="M1065 234.847H-56V235.692H1065V234.847Z" fill="#939598"/>
<path d="M1065 347.003H-56V347.849H1065V347.003Z" fill="#939598"/>
<path d="M1065 21.8063H-56V22.6517H1065V21.8063Z" fill="#939598"/>
<path d="M1065 133.963H-56V134.808H1065V133.963Z" fill="#939598"/>
<path d="M1065 246.119H-56V246.964H1065V246.119Z" fill="#939598"/>
<path d="M1065 358.275H-56V359.121H1065V358.275Z" fill="#939598"/>
<path d="M1065 33.0782H-56V33.9237H1065V33.0782Z" fill="#939598"/>
<path d="M1065 145.235H-56V146.08H1065V145.235Z" fill="#939598"/>
<path d="M1065 257.391H-56V258.236H1065V257.391Z" fill="#939598"/>
<path d="M1065 369.265H-56V370.111H1065V369.265Z" fill="#939598"/>
<path d="M1065 44.3502H-56V45.1956H1065V44.3502Z" fill="#939598"/>
<path d="M1065 156.225H-56V157.07H1065V156.225Z" fill="#939598"/>
<path d="M1065 268.381H-56V269.226H1065V268.381Z" fill="#939598"/>
<path d="M1065 380.537H-56V381.383H1065V380.537Z" fill="#939598"/>
</svg>
