<svg width="141" height="44" viewBox="0 0 141 44" fill="none" xmlns="http://www.w3.org/2000/svg">
<path d="M135 0.090589H134.68C134 0.060589 132 0.010589 129 0.010589H109.84H75.2499V0.130589C43.9999 0.170589 11.3299 0.170589 7.30994 0.010589C-0.620064 -0.269411 -0.430064 5.08059 0.369936 6.92059C1.16994 8.76059 7.78994 21.2906 7.78994 21.7606C7.78994 22.2306 1.16994 34.7506 0.369936 36.5906C-0.430064 38.4306 -0.630064 43.7906 7.30994 43.5006C10.9999 43.3606 43.8099 43.3506 75.2499 43.3706V43.4506H134.75C136.31 43.4506 137.807 42.8314 138.911 41.729C140.016 40.6266 140.637 39.131 140.64 37.5706V6.01059C140.652 4.48492 140.07 3.01446 139.017 1.90981C137.965 0.805155 136.524 0.152819 135 0.090589Z" fill="url(#paint0_linear)"/>
<defs>
<linearGradient id="paint0_linear" x1="70.3208" y1="43.5188" x2="70.3208" y2="0.00297243" gradientUnits="userSpaceOnUse">
<stop stop-color="#FBA600"/>
<stop offset="1" stop-color="#FCDB00"/>
</linearGradient>
</defs>
</svg>
