<svg width="161" height="54" viewBox="0 0 161 54" fill="none" xmlns="http://www.w3.org/2000/svg">
<g filter="url(#filter0_df)">
<path d="M156.26 23.7621C156.26 22.4321 154.91 20.6421 153.5 18.1621C152.09 15.6821 147.33 7.25208 145.63 4.77208C143.93 2.29208 142.09 2.01208 142.09 2.01208H139C139 2.01208 19.2499 2.31208 11.3099 2.01208C3.36994 1.71208 3.56994 7.08208 4.36994 8.92208C5.16994 10.7621 11.7899 23.2921 11.7899 23.7621C11.7899 24.2321 5.16994 36.7521 4.36994 38.5921C3.56994 40.4321 3.36994 45.7921 11.3099 45.5021C19.2499 45.2121 139.04 45.5021 139.04 45.5021H142.09C142.09 45.5021 143.93 45.2321 145.63 42.7521C147.33 40.2721 152.08 31.8421 153.5 29.3621C154.92 26.8821 156.26 25.0921 156.26 23.7621Z" fill="white"/>
</g>
<path d="M39.1719 24.3564H37.5381V28H35.4873V18.0469H39.1855C40.3613 18.0469 41.2682 18.3089 41.9062 18.833C42.5443 19.3571 42.8633 20.0977 42.8633 21.0547C42.8633 21.7337 42.7152 22.3011 42.4189 22.7568C42.1273 23.208 41.6829 23.568 41.0859 23.8369L43.2393 27.9043V28H41.0381L39.1719 24.3564ZM37.5381 22.6953H39.1924C39.7074 22.6953 40.1061 22.5654 40.3887 22.3057C40.6712 22.0413 40.8125 21.679 40.8125 21.2188C40.8125 20.7493 40.6781 20.3802 40.4092 20.1113C40.1449 19.8424 39.737 19.708 39.1855 19.708H37.5381V22.6953ZM43.9912 24.2334C43.9912 23.4997 44.1325 22.8457 44.415 22.2715C44.6976 21.6973 45.1032 21.2529 45.6318 20.9385C46.165 20.624 46.7826 20.4668 47.4844 20.4668C48.4824 20.4668 49.2959 20.7721 49.9248 21.3828C50.5583 21.9935 50.9115 22.8229 50.9844 23.8711L50.998 24.377C50.998 25.5117 50.6813 26.4232 50.0479 27.1113C49.4144 27.7949 48.5645 28.1367 47.498 28.1367C46.4316 28.1367 45.5794 27.7949 44.9414 27.1113C44.3079 26.4277 43.9912 25.498 43.9912 24.3223V24.2334ZM45.9668 24.377C45.9668 25.0788 46.099 25.6165 46.3633 25.9902C46.6276 26.3594 47.0059 26.5439 47.498 26.5439C47.9766 26.5439 48.3503 26.3617 48.6191 25.9971C48.888 25.6279 49.0225 25.04 49.0225 24.2334C49.0225 23.5452 48.888 23.012 48.6191 22.6338C48.3503 22.2555 47.972 22.0664 47.4844 22.0664C47.0013 22.0664 46.6276 22.2555 46.3633 22.6338C46.099 23.0075 45.9668 23.5885 45.9668 24.377ZM51.9072 24.2334C51.9072 23.4997 52.0485 22.8457 52.3311 22.2715C52.6136 21.6973 53.0192 21.2529 53.5479 20.9385C54.0811 20.624 54.6986 20.4668 55.4004 20.4668C56.3984 20.4668 57.2119 20.7721 57.8408 21.3828C58.4743 21.9935 58.8275 22.8229 58.9004 23.8711L58.9141 24.377C58.9141 25.5117 58.5973 26.4232 57.9639 27.1113C57.3304 27.7949 56.4805 28.1367 55.4141 28.1367C54.3477 28.1367 53.4954 27.7949 52.8574 27.1113C52.224 26.4277 51.9072 25.498 51.9072 24.3223V24.2334ZM53.8828 24.377C53.8828 25.0788 54.015 25.6165 54.2793 25.9902C54.5436 26.3594 54.9219 26.5439 55.4141 26.5439C55.8926 26.5439 56.2663 26.3617 56.5352 25.9971C56.804 25.6279 56.9385 25.04 56.9385 24.2334C56.9385 23.5452 56.804 23.012 56.5352 22.6338C56.2663 22.2555 55.888 22.0664 55.4004 22.0664C54.9173 22.0664 54.5436 22.2555 54.2793 22.6338C54.015 23.0075 53.8828 23.5885 53.8828 24.377ZM61.9834 20.6035L62.0449 21.4307C62.569 20.7881 63.2777 20.4668 64.1709 20.4668C65.1234 20.4668 65.7773 20.8428 66.1328 21.5947C66.6523 20.8428 67.3929 20.4668 68.3545 20.4668C69.1566 20.4668 69.7536 20.7015 70.1455 21.1709C70.5374 21.6357 70.7334 22.3376 70.7334 23.2764V28H68.751V23.2832C68.751 22.8639 68.6689 22.5586 68.5049 22.3672C68.3408 22.1712 68.0514 22.0732 67.6367 22.0732C67.0443 22.0732 66.6341 22.3558 66.4062 22.9209L66.4131 28H64.4375V23.29C64.4375 22.8617 64.3532 22.5518 64.1846 22.3604C64.016 22.1689 63.7288 22.0732 63.3232 22.0732C62.7627 22.0732 62.3571 22.3057 62.1064 22.7705V28H60.1309V20.6035H61.9834ZM81.0352 25.3887C81.0352 25.0013 80.8984 24.7051 80.625 24.5C80.3516 24.2904 79.8594 24.0716 79.1484 23.8438C78.4375 23.6113 77.8747 23.3835 77.46 23.1602C76.3298 22.5495 75.7646 21.7269 75.7646 20.6924C75.7646 20.1546 75.915 19.6761 76.2158 19.2568C76.5212 18.833 76.9564 18.5026 77.5215 18.2656C78.0911 18.0286 78.7292 17.9102 79.4355 17.9102C80.1465 17.9102 80.7799 18.04 81.3359 18.2998C81.8919 18.555 82.3226 18.9173 82.6279 19.3867C82.9378 19.8561 83.0928 20.3893 83.0928 20.9863H81.042C81.042 20.5306 80.8984 20.1774 80.6113 19.9268C80.3242 19.6715 79.9209 19.5439 79.4014 19.5439C78.9001 19.5439 78.5104 19.651 78.2324 19.8652C77.9544 20.0749 77.8154 20.3529 77.8154 20.6992C77.8154 21.0228 77.9772 21.2939 78.3008 21.5127C78.6289 21.7314 79.1097 21.9365 79.7432 22.1279C80.9098 22.4788 81.7598 22.9141 82.293 23.4336C82.8262 23.9531 83.0928 24.6003 83.0928 25.375C83.0928 26.2363 82.7669 26.9131 82.1152 27.4053C81.4635 27.8929 80.5863 28.1367 79.4834 28.1367C78.7178 28.1367 78.0205 27.9977 77.3916 27.7197C76.7627 27.4372 76.2819 27.0521 75.9492 26.5645C75.6211 26.0768 75.457 25.5117 75.457 24.8691H77.5146C77.5146 25.9674 78.1709 26.5166 79.4834 26.5166C79.971 26.5166 80.3516 26.4186 80.625 26.2227C80.8984 26.0221 81.0352 25.7441 81.0352 25.3887ZM86.2852 21.4102C86.8092 20.7812 87.4678 20.4668 88.2607 20.4668C89.8649 20.4668 90.6784 21.3988 90.7012 23.2627V28H88.7256V23.3174C88.7256 22.8936 88.6344 22.5814 88.4521 22.3809C88.2699 22.1758 87.9668 22.0732 87.543 22.0732C86.9642 22.0732 86.5449 22.2965 86.2852 22.7432V28H84.3096V17.5H86.2852V21.4102ZM96.4775 28C96.3864 27.8223 96.3203 27.6012 96.2793 27.3369C95.8008 27.8701 95.1787 28.1367 94.4131 28.1367C93.6885 28.1367 93.0869 27.9271 92.6084 27.5078C92.1344 27.0885 91.8975 26.5599 91.8975 25.9219C91.8975 25.138 92.1868 24.5365 92.7656 24.1172C93.349 23.6979 94.1898 23.486 95.2881 23.4814H96.1973V23.0576C96.1973 22.7158 96.1084 22.4424 95.9307 22.2373C95.7575 22.0322 95.4818 21.9297 95.1035 21.9297C94.7708 21.9297 94.5088 22.0094 94.3174 22.1689C94.1305 22.3285 94.0371 22.5472 94.0371 22.8252H92.0615C92.0615 22.3968 92.1937 22.0003 92.458 21.6357C92.7223 21.2712 93.096 20.9863 93.5791 20.7812C94.0622 20.5716 94.6045 20.4668 95.2061 20.4668C96.1175 20.4668 96.8398 20.6969 97.373 21.1572C97.9108 21.613 98.1797 22.2555 98.1797 23.085V26.291C98.1842 26.9928 98.2822 27.5238 98.4736 27.8838V28H96.4775ZM94.8438 26.626C95.1354 26.626 95.4043 26.5622 95.6504 26.4346C95.8965 26.3024 96.0788 26.127 96.1973 25.9082V24.6367H95.459C94.4701 24.6367 93.9437 24.9785 93.8799 25.6621L93.873 25.7783C93.873 26.0244 93.9596 26.2272 94.1328 26.3867C94.306 26.5462 94.543 26.626 94.8438 26.626ZM106.355 24.3701C106.355 25.5094 106.096 26.4232 105.576 27.1113C105.061 27.7949 104.364 28.1367 103.484 28.1367C102.737 28.1367 102.133 27.877 101.673 27.3574V30.8438H99.6973V20.6035H101.529L101.598 21.3281C102.076 20.7539 102.701 20.4668 103.471 20.4668C104.382 20.4668 105.091 20.804 105.597 21.4785C106.103 22.153 106.355 23.0827 106.355 24.2676V24.3701ZM104.38 24.2266C104.38 23.5384 104.257 23.0075 104.011 22.6338C103.769 22.2601 103.416 22.0732 102.951 22.0732C102.331 22.0732 101.905 22.3102 101.673 22.7842V25.8125C101.914 26.3001 102.345 26.5439 102.965 26.5439C103.908 26.5439 104.38 25.7715 104.38 24.2266ZM110.99 28.1367C109.906 28.1367 109.021 27.804 108.338 27.1387C107.659 26.4733 107.319 25.5869 107.319 24.4795V24.2881C107.319 23.5452 107.463 22.8822 107.75 22.2988C108.037 21.7109 108.443 21.2598 108.967 20.9453C109.495 20.6263 110.097 20.4668 110.771 20.4668C111.783 20.4668 112.578 20.7858 113.157 21.4238C113.741 22.0618 114.032 22.9665 114.032 24.1377V24.9443H109.322C109.386 25.4274 109.577 25.8148 109.896 26.1064C110.22 26.3981 110.628 26.5439 111.12 26.5439C111.881 26.5439 112.476 26.2682 112.904 25.7168L113.875 26.8037C113.579 27.223 113.178 27.5511 112.672 27.7881C112.166 28.0205 111.605 28.1367 110.99 28.1367ZM110.765 22.0664C110.373 22.0664 110.054 22.1986 109.808 22.4629C109.566 22.7272 109.411 23.1055 109.343 23.5977H112.091V23.4404C112.082 23.0029 111.963 22.6657 111.735 22.4287C111.507 22.1872 111.184 22.0664 110.765 22.0664Z" fill="#C2BDBD"/>
<defs>
<filter id="filter0_df" x="0" y="0.9" width="160.26" height="52.6134" filterUnits="userSpaceOnUse" color-interpolation-filters="sRGB">
<feFlood flood-opacity="0" result="BackgroundImageFix"/>
<feColorMatrix in="SourceAlpha" type="matrix" values="0 0 0 0 0 0 0 0 0 0 0 0 0 0 0 0 0 0 127 0"/>
<feOffset dy="4"/>
<feGaussianBlur stdDeviation="2"/>
<feColorMatrix type="matrix" values="0 0 0 0 0 0 0 0 0 0 0 0 0 0 0 0 0 0 0.25 0"/>
<feBlend mode="normal" in2="BackgroundImageFix" result="effect1_dropShadow"/>
<feBlend mode="normal" in="SourceGraphic" in2="effect1_dropShadow" result="shape"/>
<feGaussianBlur stdDeviation="0.55" result="effect2_foregroundBlur"/>
</filter>
</defs>
</svg>
