<svg width="17" height="17" viewBox="0 0 17 17" fill="none" xmlns="http://www.w3.org/2000/svg">
<circle cx="8.5" cy="8.5" r="8.27027" fill="url(#paint0_linear)" stroke="#D7D7D7" stroke-width="0.459459"/>
<path d="M13.4124 6.42624L13.4131 6.4256C13.8436 5.99503 13.8436 5.317 13.4131 4.88643C12.9825 4.45586 12.3045 4.45586 11.8739 4.88643L7.17222 9.5881L5.05583 7.64972C4.62087 7.24301 3.94375 7.27222 3.53917 7.70378L3.53907 7.70369L3.53388 7.70962C3.15412 8.14363 3.18236 8.81724 3.61356 9.22148L3.61354 9.2215L3.61596 9.2237L6.49073 11.8429C6.92473 12.2486 7.57622 12.2194 7.98031 11.8158C7.98046 11.8156 7.9806 11.8155 7.98074 11.8153L13.4124 6.42624ZM0.22973 8.5C0.22973 3.94016 3.94016 0.22973 8.5 0.22973C13.0598 0.22973 16.7703 3.94016 16.7703 8.5C16.7703 13.0598 13.0598 16.7703 8.5 16.7703C3.94016 16.7703 0.22973 13.0598 0.22973 8.5Z" fill="url(#paint1_linear)" stroke="#D7D7D7" stroke-width="0.459459"/>
<defs>
<linearGradient id="paint0_linear" x1="8.5" y1="1.57469e-07" x2="13.7838" y2="20.9054" gradientUnits="userSpaceOnUse">
<stop stop-color="white"/>
<stop offset="0.536458" stop-color="#FBFBFB"/>
<stop offset="0.92849" stop-color="#C4C4C4"/>
</linearGradient>
<linearGradient id="paint1_linear" x1="8.5" y1="1.57469e-07" x2="13.7838" y2="20.9054" gradientUnits="userSpaceOnUse">
<stop stop-color="#58D67B"/>
<stop offset="0.213542" stop-color="#55AC67"/>
<stop offset="1" stop-color="#037E01"/>
</linearGradient>
</defs>
</svg>
