<svg width="134" height="44" viewBox="0 0 134 44" fill="none" xmlns="http://www.w3.org/2000/svg">
<path d="M124.202 4.34562C120.802 -0.754377 119.002 0.0456226 119.002 0.0456226C119.002 0.0456226 58.7017 0.0456226 19.6017 0.0456226C18.7017 0.0456226 17.8017 0.0456226 17.0017 0.0456226C11.7017 0.0456226 8.10173 0.0456226 7.00173 0.0456226C-0.29827 0.0456226 0.0017305 6.64562 0.0017305 6.64562V21.7456V36.8456C0.0017305 36.8456 -0.29827 43.4456 7.00173 43.4456C8.10173 43.4456 11.7017 43.4456 17.0017 43.4456C17.8017 43.4456 18.7017 43.4456 19.6017 43.4456C58.7017 43.4456 119.002 43.4456 119.002 43.4456C119.002 43.4456 120.802 44.3456 124.202 39.1456C127.602 34.0456 133.702 23.8456 133.702 21.7456C133.702 19.6456 127.602 9.44562 124.202 4.34562Z" fill="url(#paint0_linear)"/>
<defs>
<linearGradient id="paint0_linear" x1="66.8516" y1="43.512" x2="66.8516" y2="0.00297197" gradientUnits="userSpaceOnUse">
<stop stop-color="#FBA600"/>
<stop offset="1" stop-color="#FCDB00"/>
</linearGradient>
</defs>
</svg>
